<svg width="30" height="31" viewBox="0 0 30 31" fill="none" xmlns="http://www.w3.org/2000/svg">
<rect width="30" height="31" fill="#CACACA"/>
<g id="Web3Preneur V1" clip-path="url(#clip0_0_1)">
<rect width="1440" height="9841" transform="translate(-359 -479)" fill="white"/>
<g id="Frame 95622" clip-path="url(#clip1_0_1)">
<rect width="1440" height="802" transform="translate(-359 -479)" fill="white"/>
<g id="Frame 95624" clip-path="url(#clip2_0_1)">
<rect width="1440" height="802" transform="translate(-359 -479)" fill="white"/>
<g id="Group 35512">
<g id="Ellipse 446" filter="url(#filter0_f_0_1)">
<ellipse cx="-390.594" cy="-329.506" rx="432" ry="368" fill="#B134FF" fill-opacity="0.08"/>
</g>
</g>
<g id="Frame 95625">
<g id="div.h2d-60dae58c" filter="url(#filter1_d_0_1)">
<g id="div.framer-wosavx" filter="url(#filter2_d_0_1)">
<rect x="-39" y="-39.5" width="800" height="110" rx="36" fill="url(#paint0_linear_0_1)" shape-rendering="crispEdges"/>
<g id="div.framer-nyvugc" filter="url(#filter3_d_0_1)">
<rect x="-29" y="-29.5" width="780" height="90" rx="26" fill="url(#paint1_linear_0_1)" shape-rendering="crispEdges"/>
<g id="div.framer-yddpkm">
<rect x="-9" y="-8.5" width="48" height="48" rx="14" fill="url(#paint2_linear_0_1)"/>
<g id="div.framer-nt8ggw">
<g id="image">
<g id="Group">
<path id="Vector" d="M19.6619 20.737C20.2529 21.737 19.5319 23 18.3699 23H4.12794C2.96594 23 2.24494 21.737 2.83594 20.737L9.95794 8.68499C10.5379 7.70299 11.9599 7.70299 12.5399 8.68499L19.6619 20.737ZM6.74894 20H15.7489L11.2489 12.5L6.74894 20ZM20.9989 9.49999C20.9989 8.67199 21.6709 7.99999 22.4989 7.99999C23.3269 7.99999 23.9989 8.67199 23.9989 9.49999V21.5C23.9989 22.328 23.3269 23 22.4989 23C21.6709 23 20.9989 22.328 20.9989 21.5V9.49999Z" fill="url(#paint3_linear_0_1)"/>
</g>
</g>
</g>
</g>
</g>
<rect id="pseudo" x="-38.5" y="-39" width="799" height="109" rx="35.5" stroke="black" stroke-opacity="0.05"/>
<rect id="pseudo_2" opacity="0.1" x="-38.5" y="-39" width="799" height="109" rx="35.5" stroke="white"/>
</g>
</g>
</g>
</g>
</g>
</g>
<defs>
<filter id="filter0_f_0_1" x="-1322.59" y="-1197.51" width="1864" height="1736" filterUnits="userSpaceOnUse" color-interpolation-filters="sRGB">
<feFlood flood-opacity="0" result="BackgroundImageFix"/>
<feBlend mode="normal" in="SourceGraphic" in2="BackgroundImageFix" result="shape"/>
<feGaussianBlur stdDeviation="250" result="effect1_foregroundBlur_0_1"/>
</filter>
<filter id="filter1_d_0_1" x="-239" y="-205.5" width="1200" height="510" filterUnits="userSpaceOnUse" color-interpolation-filters="sRGB">
<feFlood flood-opacity="0" result="BackgroundImageFix"/>
<feColorMatrix in="SourceAlpha" type="matrix" values="0 0 0 0 0 0 0 0 0 0 0 0 0 0 0 0 0 0 127 0" result="hardAlpha"/>
<feOffset dy="34"/>
<feGaussianBlur stdDeviation="100"/>
<feComposite in2="hardAlpha" operator="out"/>
<feColorMatrix type="matrix" values="0 0 0 0 0 0 0 0 0 0 0 0 0 0 0 0 0 0 0.1 0"/>
<feBlend mode="normal" in2="BackgroundImageFix" result="effect1_dropShadow_0_1"/>
<feBlend mode="normal" in="SourceGraphic" in2="effect1_dropShadow_0_1" result="shape"/>
</filter>
<filter id="filter2_d_0_1" x="-79" y="-59.5" width="880" height="190" filterUnits="userSpaceOnUse" color-interpolation-filters="sRGB">
<feFlood flood-opacity="0" result="BackgroundImageFix"/>
<feColorMatrix in="SourceAlpha" type="matrix" values="0 0 0 0 0 0 0 0 0 0 0 0 0 0 0 0 0 0 127 0" result="hardAlpha"/>
<feOffset dy="20"/>
<feGaussianBlur stdDeviation="20"/>
<feComposite in2="hardAlpha" operator="out"/>
<feColorMatrix type="matrix" values="0 0 0 0 0 0 0 0 0 0 0 0 0 0 0 0 0 0 0.15 0"/>
<feBlend mode="normal" in2="BackgroundImageFix" result="effect1_dropShadow_0_1"/>
<feBlend mode="normal" in="SourceGraphic" in2="effect1_dropShadow_0_1" result="shape"/>
</filter>
<filter id="filter3_d_0_1" x="-33" y="-41" width="788" height="106.5" filterUnits="userSpaceOnUse" color-interpolation-filters="sRGB">
<feFlood flood-opacity="0" result="BackgroundImageFix"/>
<feColorMatrix in="SourceAlpha" type="matrix" values="0 0 0 0 0 0 0 0 0 0 0 0 0 0 0 0 0 0 127 0" result="hardAlpha"/>
<feOffset dy="1"/>
<feGaussianBlur stdDeviation="2"/>
<feComposite in2="hardAlpha" operator="out"/>
<feColorMatrix type="matrix" values="0 0 0 0 0 0 0 0 0 0 0 0 0 0 0 0 0 0 0.05 0"/>
<feBlend mode="normal" in2="BackgroundImageFix" result="effect1_dropShadow_0_1"/>
<feBlend mode="normal" in="SourceGraphic" in2="effect1_dropShadow_0_1" result="shape"/>
</filter>
<linearGradient id="paint0_linear_0_1" x1="361" y1="-39.5" x2="361" y2="70.5" gradientUnits="userSpaceOnUse">
<stop stop-color="#00BBFF" stop-opacity="0.1"/>
<stop offset="1" stop-color="#C44DFF" stop-opacity="0.1"/>
</linearGradient>
<linearGradient id="paint1_linear_0_1" x1="361" y1="-29.5" x2="361" y2="60.5" gradientUnits="userSpaceOnUse">
<stop stop-color="white" stop-opacity="0.8"/>
<stop offset="1" stop-color="white"/>
</linearGradient>
<linearGradient id="paint2_linear_0_1" x1="39" y1="15.5" x2="-9" y2="15.5" gradientUnits="userSpaceOnUse">
<stop stop-color="#A781FF" stop-opacity="0.1"/>
<stop offset="1" stop-color="#1BBBFF" stop-opacity="0.1"/>
</linearGradient>
<linearGradient id="paint3_linear_0_1" x1="-1.62713" y1="-5.94851" x2="-23.0011" y2="-5.94851" gradientUnits="userSpaceOnUse">
<stop stop-color="#BC2EFF"/>
<stop offset="1" stop-color="#359CFF"/>
</linearGradient>
<clipPath id="clip0_0_1">
<rect width="1440" height="9841" fill="white" transform="translate(-359 -479)"/>
</clipPath>
<clipPath id="clip1_0_1">
<rect width="1440" height="802" fill="white" transform="translate(-359 -479)"/>
</clipPath>
<clipPath id="clip2_0_1">
<rect width="1440" height="802" fill="white" transform="translate(-359 -479)"/>
</clipPath>
</defs>
</svg>
