<svg width="28" height="29" viewBox="0 0 28 29" fill="none" xmlns="http://www.w3.org/2000/svg">
<rect width="28" height="29" fill="#CACACA"/>
<g clip-path="url(#clip0_0_1)">
<rect width="1440" height="9841" transform="translate(-1168 -9739)" fill="white"/>
<rect width="1440" height="452" transform="translate(-1168 -350.256)" fill="#FAFAFA"/>
<g clip-path="url(#clip1_0_1)">
<path fill-rule="evenodd" clip-rule="evenodd" d="M0 14.2441C0 6.51177 6.26762 0.244141 14 0.244141C21.7324 0.244141 28 6.51177 28 14.2441C28 21.9756 21.7324 28.2441 14 28.2441C6.26762 28.2441 0 21.9756 0 14.2441ZM21.2575 14.9485V20.3184L18.1451 20.3193V15.3081C18.1451 14.049 17.6945 13.1906 16.5675 13.1906C15.7074 13.1906 15.1955 13.7699 14.9706 14.329C14.8884 14.5285 14.8683 14.8085 14.8683 15.0876V20.3184H11.755C11.755 20.3184 11.7961 11.8318 11.755 10.9524H14.8683V12.2798C15.2804 11.6419 16.0206 10.7328 17.6735 10.7328C19.7219 10.7328 21.2575 12.0715 21.2575 14.9485ZM10.236 8.05527C10.236 8.95389 9.55963 9.67402 8.47463 9.67402H8.45538C7.40975 9.67402 6.73425 8.95477 6.73425 8.05527C6.73425 7.13652 7.42988 6.43739 8.49475 6.43739C9.55963 6.43739 10.2159 7.13652 10.236 8.05527ZM10.0313 10.9524V20.3184H6.91888V10.9524H10.0313Z" fill="#969696"/>
</g>
</g>
<defs>
<clipPath id="clip0_0_1">
<rect width="1440" height="9841" fill="white" transform="translate(-1168 -9739)"/>
</clipPath>
<clipPath id="clip1_0_1">
<rect width="28" height="28" fill="white" transform="translate(0 0.244141)"/>
</clipPath>
</defs>
</svg>
