<svg width="28" height="29" viewBox="0 0 28 29" fill="none" xmlns="http://www.w3.org/2000/svg">
<g clip-path="url(#clip0_654_5924)">
<path fill-rule="evenodd" clip-rule="evenodd" d="M28 14.2441C28 6.51334 21.7308 0.244141 14 0.244141C6.2692 0.244141 0 6.51334 0 14.2441C0 21.9749 6.2692 28.2441 14 28.2441C21.7308 28.2441 28 21.9749 28 14.2441ZM20.9687 11.1389C20.9687 15.8849 17.3539 21.3561 10.7515 21.3561V21.3533C8.80272 21.3561 6.89033 20.7961 5.25513 19.7405C5.53793 19.7769 5.82352 19.7937 6.10913 19.7937C7.72473 19.7965 9.29552 19.2533 10.5667 18.2537C9.02952 18.2229 7.68273 17.2205 7.21233 15.7589C7.74993 15.8625 8.30433 15.8401 8.83353 15.6973C7.15633 15.3585 5.95233 13.8857 5.95233 12.1777V12.1329C6.45073 12.4101 7.01073 12.5641 7.58192 12.5809C6.00272 11.5253 5.51833 9.42808 6.47033 7.78728C8.29313 10.0301 10.9839 11.3937 13.8707 11.5393C13.5823 10.2933 13.9771 8.98568 14.9095 8.10928C16.3543 6.75128 18.6279 6.82128 19.9887 8.26608C20.7923 8.10928 21.5623 7.81248 22.2679 7.39528C21.9991 8.22688 21.4391 8.93248 20.6887 9.38048C21.3999 9.29648 22.0943 9.10608 22.7495 8.81488C22.2679 9.53728 21.6603 10.1645 20.9575 10.6741C20.9687 10.8281 20.9687 10.9849 20.9687 11.1389Z" fill="#969696"/>
</g>
<defs>
<clipPath id="clip0_654_5924">
<rect width="28" height="28" fill="white" transform="translate(0 0.244141)"/>
</clipPath>
</defs>
</svg>
