<svg width="28" height="29" viewBox="0 0 28 29" fill="none" xmlns="http://www.w3.org/2000/svg">
<g clip-path="url(#clip0_654_5930)">
<path fill-rule="evenodd" clip-rule="evenodd" d="M14.0339 21.4135H14.0367C18.0283 21.4135 21.2774 18.1646 21.2787 14.1711C21.2791 12.2358 20.5266 10.4165 19.1592 9.04752C17.7916 7.67836 15.9736 6.92389 14.0389 6.92345C10.0441 6.92345 6.79503 10.1721 6.79372 14.165C6.79284 15.5339 7.17588 16.8663 7.90103 18.0191L8.07319 18.2939L7.34191 20.9661L10.0828 20.2471L10.3473 20.4041C11.4594 21.0639 12.7339 21.413 14.0339 21.4135ZM16.5213 15.281C16.721 15.3543 17.7914 15.8804 18.0093 15.9895C18.0521 16.011 18.0921 16.0304 18.1292 16.0484C18.2804 16.1216 18.3828 16.1711 18.4268 16.2444C18.4818 16.3354 18.4818 16.7711 18.3004 17.2795C18.1186 17.7881 17.2489 18.2523 16.8306 18.3146C16.4552 18.3706 15.9806 18.3945 15.4591 18.2285C15.143 18.1278 14.7372 17.9937 14.2179 17.7697C12.179 16.8894 10.8005 14.914 10.5377 14.5373C10.519 14.5105 10.5059 14.4918 10.4987 14.4821L10.4978 14.4809C10.3855 14.3315 9.60969 13.2987 9.60969 12.2301C9.60969 11.2273 10.1019 10.7019 10.3286 10.4598C10.3443 10.4431 10.3587 10.4277 10.3716 10.4136C10.5711 10.1955 10.8071 10.141 10.9522 10.141C11.0972 10.141 11.2422 10.1428 11.3695 10.1489C11.3851 10.1497 11.4013 10.1496 11.4181 10.1495C11.5449 10.1486 11.703 10.1476 11.8593 10.5225C11.917 10.6613 12.0004 10.8646 12.0891 11.0807C12.279 11.5433 12.4932 12.0649 12.5304 12.1393C12.5851 12.2483 12.6212 12.3754 12.5486 12.5206C12.5376 12.5425 12.5275 12.5632 12.5178 12.5829C12.4633 12.6939 12.4232 12.7757 12.3309 12.8837C12.2954 12.9253 12.2587 12.97 12.222 13.0148C12.1462 13.1071 12.0703 13.1995 12.0043 13.2652C11.8952 13.374 11.7819 13.4914 11.9087 13.7093C12.0356 13.9272 12.4727 14.6407 13.1202 15.2176C13.8152 15.8381 14.4195 16.1003 14.7261 16.2334C14.7861 16.2595 14.8347 16.2806 14.8704 16.2984C15.0883 16.4076 15.2152 16.3892 15.342 16.244C15.4693 16.0987 15.8865 15.608 16.0317 15.3902C16.177 15.1723 16.3216 15.2084 16.5213 15.281Z" fill="#969696"/>
<path fill-rule="evenodd" clip-rule="evenodd" d="M28 14.2441C28 21.9761 21.732 28.2441 14 28.2441C6.26801 28.2441 0 21.9761 0 14.2441C0 6.51215 6.26801 0.244141 14 0.244141C21.732 0.244141 28 6.51215 28 14.2441ZM14.0365 5.45192C16.3675 5.45302 18.5553 6.36039 20.2007 8.00758C21.8452 9.65455 22.7511 11.8438 22.75 14.1717C22.748 18.9759 18.8392 22.8852 14.0367 22.8852H14.033C12.5746 22.8845 11.1418 22.5186 9.86891 21.8249L5.25 23.0364L6.48594 18.5209C5.72359 17.2001 5.32219 15.701 5.32306 14.165C5.32459 9.36055 9.23409 5.45192 14.0365 5.45192Z" fill="#969696"/>
</g>
<defs>
<clipPath id="clip0_654_5930">
<rect width="28" height="28" fill="white" transform="translate(0 0.244141)"/>
</clipPath>
</defs>
</svg>
