<svg width="28" height="29" viewBox="0 0 28 29" fill="none" xmlns="http://www.w3.org/2000/svg">
<rect width="28" height="29" fill="#CACACA"/>
<g clip-path="url(#clip0_0_1)">
<rect width="1440" height="9841" transform="translate(-1256 -9739)" fill="white"/>
<rect width="1440" height="452" transform="translate(-1256 -350.256)" fill="#FAFAFA"/>
<path fill-rule="evenodd" clip-rule="evenodd" d="M14 28.2441C21.732 28.2441 28 21.9761 28 14.2441C28 6.51215 21.732 0.244141 14 0.244141C6.26801 0.244141 0 6.51215 0 14.2441C0 21.9761 6.26801 28.2441 14 28.2441ZM21.1543 10.4032C21.3979 10.6341 21.5744 10.9267 21.665 11.2499V11.2493C21.9039 12.4604 22.0156 13.6932 21.9983 14.9275C22.0062 16.1567 21.8944 17.3837 21.6643 18.5911C21.5741 18.9143 21.3978 19.207 21.1543 19.4378C20.9038 19.6758 20.5968 19.8461 20.2622 19.9325C18.1811 20.1651 16.0877 20.2697 13.9938 20.2459C13.9938 20.2459 9.00211 20.2459 7.73335 19.9165C7.39467 19.8265 7.08664 19.6565 6.83929 19.4212C6.59194 19.1858 6.41393 18.8945 6.32259 18.5751C6.09791 17.3657 5.98924 16.1396 5.99724 14.9122C5.98943 13.6837 6.09837 12.4572 6.32259 11.2493C6.41593 10.9286 6.59461 10.6359 6.84129 10.3986C7.09235 10.1587 7.39879 9.98467 7.73335 9.89186C9.81178 9.65936 11.9025 9.55471 13.9938 9.5785C13.9938 9.5785 19.0101 9.5785 20.2622 9.90852C20.5968 9.99495 20.9038 10.1652 21.1543 10.4032ZM12.399 12.63V17.195L16.5726 14.9129L12.399 12.63Z" fill="#969696"/>
</g>
<defs>
<clipPath id="clip0_0_1">
<rect width="1440" height="9841" fill="white" transform="translate(-1256 -9739)"/>
</clipPath>
</defs>
</svg>
